<mxfile host="app.diagrams.net" agent="Mozilla/5.0 (Windows NT 10.0; Win64; x64) AppleWebKit/537.36 (KHTML, like Gecko) Chrome/130.0.0.0 Safari/537.36" version="24.8.4">
  <diagram name="Page-1" id="JIGXIL0hVBnsW9wdK-GE">
    <mxGraphModel dx="1050" dy="522" grid="1" gridSize="10" guides="1" tooltips="1" connect="1" arrows="1" fold="1" page="1" pageScale="1" pageWidth="850" pageHeight="1100" math="0" shadow="0">
      <root>
        <mxCell id="0" />
        <mxCell id="1" parent="0" />
        <mxCell id="qYp6iA2Xiy0ih6rIhEPf-1" value="aLoginPage:&lt;div&gt;LoginPage&lt;/div&gt;" style="html=1;whiteSpace=wrap;" vertex="1" parent="1">
          <mxGeometry x="195" y="180" width="230" height="90" as="geometry" />
        </mxCell>
        <mxCell id="qYp6iA2Xiy0ih6rIhEPf-2" value="" style="shape=umlBoundary;whiteSpace=wrap;html=1;" vertex="1" parent="1">
          <mxGeometry x="375" y="207.5" width="40" height="35" as="geometry" />
        </mxCell>
        <mxCell id="qYp6iA2Xiy0ih6rIhEPf-3" value="aValidate:&lt;div&gt;Validate&lt;/div&gt;" style="html=1;whiteSpace=wrap;" vertex="1" parent="1">
          <mxGeometry x="441" y="180" width="230" height="90" as="geometry" />
        </mxCell>
        <mxCell id="qYp6iA2Xiy0ih6rIhEPf-4" value="" style="ellipse;shape=umlControl;whiteSpace=wrap;html=1;" vertex="1" parent="1">
          <mxGeometry x="611" y="202.5" width="40" height="40" as="geometry" />
        </mxCell>
        <mxCell id="qYp6iA2Xiy0ih6rIhEPf-5" value="Account&lt;div&gt;Owner&lt;/div&gt;" style="shape=umlActor;verticalLabelPosition=bottom;verticalAlign=top;html=1;" vertex="1" parent="1">
          <mxGeometry x="70" y="175" width="50" height="100" as="geometry" />
        </mxCell>
        <mxCell id="qYp6iA2Xiy0ih6rIhEPf-6" value="" style="endArrow=none;html=1;rounded=0;entryX=0.5;entryY=1;entryDx=0;entryDy=0;dashed=1;" edge="1" parent="1" target="qYp6iA2Xiy0ih6rIhEPf-1">
          <mxGeometry width="50" height="50" relative="1" as="geometry">
            <mxPoint x="310" y="960" as="sourcePoint" />
            <mxPoint x="420" y="360" as="targetPoint" />
          </mxGeometry>
        </mxCell>
        <mxCell id="qYp6iA2Xiy0ih6rIhEPf-7" value="" style="endArrow=none;html=1;rounded=0;entryX=0.5;entryY=1;entryDx=0;entryDy=0;dashed=1;" edge="1" parent="1">
          <mxGeometry width="50" height="50" relative="1" as="geometry">
            <mxPoint x="95" y="1000" as="sourcePoint" />
            <mxPoint x="95" y="310" as="targetPoint" />
          </mxGeometry>
        </mxCell>
        <mxCell id="qYp6iA2Xiy0ih6rIhEPf-8" value="" style="endArrow=none;html=1;rounded=0;entryX=0.5;entryY=1;entryDx=0;entryDy=0;dashed=1;" edge="1" parent="1">
          <mxGeometry width="50" height="50" relative="1" as="geometry">
            <mxPoint x="561" y="960" as="sourcePoint" />
            <mxPoint x="561" y="270" as="targetPoint" />
          </mxGeometry>
        </mxCell>
        <mxCell id="qYp6iA2Xiy0ih6rIhEPf-9" value="" style="endArrow=none;html=1;rounded=0;strokeWidth=6;" edge="1" parent="1">
          <mxGeometry width="50" height="50" relative="1" as="geometry">
            <mxPoint x="95" y="600" as="sourcePoint" />
            <mxPoint x="95" y="311" as="targetPoint" />
          </mxGeometry>
        </mxCell>
        <mxCell id="qYp6iA2Xiy0ih6rIhEPf-10" value="" style="endArrow=none;html=1;rounded=0;strokeWidth=6;" edge="1" parent="1">
          <mxGeometry width="50" height="50" relative="1" as="geometry">
            <mxPoint x="310" y="600" as="sourcePoint" />
            <mxPoint x="309.5" y="310" as="targetPoint" />
          </mxGeometry>
        </mxCell>
        <mxCell id="qYp6iA2Xiy0ih6rIhEPf-11" value="" style="endArrow=classic;html=1;rounded=0;" edge="1" parent="1">
          <mxGeometry width="50" height="50" relative="1" as="geometry">
            <mxPoint x="94" y="310" as="sourcePoint" />
            <mxPoint x="310" y="310" as="targetPoint" />
          </mxGeometry>
        </mxCell>
        <mxCell id="qYp6iA2Xiy0ih6rIhEPf-12" value="selectLogin()" style="text;html=1;align=center;verticalAlign=middle;resizable=0;points=[];autosize=1;strokeColor=none;fillColor=none;" vertex="1" parent="1">
          <mxGeometry x="130" y="285" width="90" height="30" as="geometry" />
        </mxCell>
        <mxCell id="qYp6iA2Xiy0ih6rIhEPf-13" value="" style="endArrow=classic;html=1;rounded=0;" edge="1" parent="1">
          <mxGeometry width="50" height="50" relative="1" as="geometry">
            <mxPoint x="93" y="334" as="sourcePoint" />
            <mxPoint x="309" y="334" as="targetPoint" />
          </mxGeometry>
        </mxCell>
        <mxCell id="qYp6iA2Xiy0ih6rIhEPf-14" value="enter(username,password)" style="text;html=1;align=center;verticalAlign=middle;resizable=0;points=[];autosize=1;strokeColor=none;fillColor=none;" vertex="1" parent="1">
          <mxGeometry x="96" y="309" width="170" height="30" as="geometry" />
        </mxCell>
        <mxCell id="qYp6iA2Xiy0ih6rIhEPf-15" value="" style="endArrow=none;html=1;rounded=0;strokeWidth=6;" edge="1" parent="1">
          <mxGeometry width="50" height="50" relative="1" as="geometry">
            <mxPoint x="561" y="400" as="sourcePoint" />
            <mxPoint x="561" y="350" as="targetPoint" />
          </mxGeometry>
        </mxCell>
        <mxCell id="qYp6iA2Xiy0ih6rIhEPf-16" value="" style="endArrow=classic;html=1;rounded=0;" edge="1" parent="1">
          <mxGeometry width="50" height="50" relative="1" as="geometry">
            <mxPoint x="310" y="350" as="sourcePoint" />
            <mxPoint x="560" y="350" as="targetPoint" />
          </mxGeometry>
        </mxCell>
        <mxCell id="qYp6iA2Xiy0ih6rIhEPf-17" value="createValidateObject()" style="text;html=1;align=center;verticalAlign=middle;resizable=0;points=[];autosize=1;strokeColor=none;fillColor=none;" vertex="1" parent="1">
          <mxGeometry x="374" y="326" width="140" height="30" as="geometry" />
        </mxCell>
        <mxCell id="qYp6iA2Xiy0ih6rIhEPf-19" value="" style="endArrow=none;html=1;rounded=0;strokeWidth=6;" edge="1" parent="1">
          <mxGeometry width="50" height="50" relative="1" as="geometry">
            <mxPoint x="563" y="560" as="sourcePoint" />
            <mxPoint x="563" y="520" as="targetPoint" />
          </mxGeometry>
        </mxCell>
        <mxCell id="qYp6iA2Xiy0ih6rIhEPf-20" value="" style="endArrow=classic;html=1;rounded=0;" edge="1" parent="1">
          <mxGeometry width="50" height="50" relative="1" as="geometry">
            <mxPoint x="560" y="559" as="sourcePoint" />
            <mxPoint x="310" y="559" as="targetPoint" />
          </mxGeometry>
        </mxCell>
        <mxCell id="qYp6iA2Xiy0ih6rIhEPf-21" value="sendValidateResult()" style="text;html=1;align=center;verticalAlign=middle;resizable=0;points=[];autosize=1;strokeColor=none;fillColor=none;" vertex="1" parent="1">
          <mxGeometry x="386" y="556" width="130" height="30" as="geometry" />
        </mxCell>
        <mxCell id="qYp6iA2Xiy0ih6rIhEPf-22" value="" style="endArrow=none;html=1;rounded=0;startArrow=classic;startFill=0;endFill=0;" edge="1" parent="1">
          <mxGeometry width="50" height="50" relative="1" as="geometry">
            <mxPoint x="96" y="598" as="sourcePoint" />
            <mxPoint x="312" y="598" as="targetPoint" />
          </mxGeometry>
        </mxCell>
        <mxCell id="qYp6iA2Xiy0ih6rIhEPf-23" value="displayValidateResult()" style="text;html=1;align=center;verticalAlign=middle;resizable=0;points=[];autosize=1;strokeColor=none;fillColor=none;" vertex="1" parent="1">
          <mxGeometry x="130" y="593" width="150" height="30" as="geometry" />
        </mxCell>
        <mxCell id="qYp6iA2Xiy0ih6rIhEPf-24" value="anAccount:&lt;div&gt;Account&lt;/div&gt;" style="html=1;whiteSpace=wrap;" vertex="1" parent="1">
          <mxGeometry x="701" y="180" width="230" height="90" as="geometry" />
        </mxCell>
        <mxCell id="qYp6iA2Xiy0ih6rIhEPf-25" value="" style="endArrow=none;html=1;rounded=0;entryX=0.5;entryY=1;entryDx=0;entryDy=0;dashed=1;" edge="1" parent="1">
          <mxGeometry width="50" height="50" relative="1" as="geometry">
            <mxPoint x="820" y="960" as="sourcePoint" />
            <mxPoint x="820" y="270" as="targetPoint" />
          </mxGeometry>
        </mxCell>
        <mxCell id="qYp6iA2Xiy0ih6rIhEPf-26" value="" style="ellipse;shape=umlEntity;whiteSpace=wrap;html=1;" vertex="1" parent="1">
          <mxGeometry x="870" y="202.5" width="40" height="40" as="geometry" />
        </mxCell>
        <mxCell id="qYp6iA2Xiy0ih6rIhEPf-27" value="" style="endArrow=none;html=1;rounded=0;strokeWidth=6;" edge="1" parent="1">
          <mxGeometry width="50" height="50" relative="1" as="geometry">
            <mxPoint x="820" y="440" as="sourcePoint" />
            <mxPoint x="820" y="399" as="targetPoint" />
          </mxGeometry>
        </mxCell>
        <mxCell id="qYp6iA2Xiy0ih6rIhEPf-28" value="" style="endArrow=classic;html=1;rounded=0;" edge="1" parent="1">
          <mxGeometry width="50" height="50" relative="1" as="geometry">
            <mxPoint x="560" y="400" as="sourcePoint" />
            <mxPoint x="820" y="400" as="targetPoint" />
          </mxGeometry>
        </mxCell>
        <mxCell id="qYp6iA2Xiy0ih6rIhEPf-29" value="searchInformation(username,paasword)" style="text;html=1;align=center;verticalAlign=middle;resizable=0;points=[];autosize=1;strokeColor=none;fillColor=none;" vertex="1" parent="1">
          <mxGeometry x="567" y="371" width="240" height="30" as="geometry" />
        </mxCell>
        <mxCell id="qYp6iA2Xiy0ih6rIhEPf-30" value="" style="endArrow=none;html=1;rounded=0;strokeWidth=6;" edge="1" parent="1">
          <mxGeometry width="50" height="50" relative="1" as="geometry">
            <mxPoint x="563" y="480" as="sourcePoint" />
            <mxPoint x="563" y="439" as="targetPoint" />
          </mxGeometry>
        </mxCell>
        <mxCell id="qYp6iA2Xiy0ih6rIhEPf-31" value="" style="endArrow=classic;html=1;rounded=0;" edge="1" parent="1">
          <mxGeometry width="50" height="50" relative="1" as="geometry">
            <mxPoint x="820" y="440" as="sourcePoint" />
            <mxPoint x="560" y="440" as="targetPoint" />
          </mxGeometry>
        </mxCell>
        <mxCell id="qYp6iA2Xiy0ih6rIhEPf-32" value="returnInformation(username,paasword)" style="text;html=1;align=center;verticalAlign=middle;resizable=0;points=[];autosize=1;strokeColor=none;fillColor=none;" vertex="1" parent="1">
          <mxGeometry x="578" y="434" width="230" height="30" as="geometry" />
        </mxCell>
        <mxCell id="qYp6iA2Xiy0ih6rIhEPf-33" value="validateInformation()" style="text;html=1;align=center;verticalAlign=middle;resizable=0;points=[];autosize=1;strokeColor=none;fillColor=none;" vertex="1" parent="1">
          <mxGeometry x="628" y="482" width="130" height="30" as="geometry" />
        </mxCell>
        <mxCell id="qYp6iA2Xiy0ih6rIhEPf-34" value="" style="endArrow=classic;html=1;rounded=0;edgeStyle=orthogonalEdgeStyle;" edge="1" parent="1">
          <mxGeometry width="50" height="50" relative="1" as="geometry">
            <mxPoint x="560" y="480" as="sourcePoint" />
            <mxPoint x="560" y="520" as="targetPoint" />
            <Array as="points">
              <mxPoint x="630" y="480" />
              <mxPoint x="630" y="520" />
            </Array>
          </mxGeometry>
        </mxCell>
      </root>
    </mxGraphModel>
  </diagram>
</mxfile>
